<svg width="65" height="71" fill="none" xmlns="http://www.w3.org/2000/svg"><path d="M.405 9.956A9.101 9.101 0 0 1 9.506.854h45.507a9.101 9.101 0 0 1 9.101 9.102v50.967a9.101 9.101 0 0 1-9.101 9.101H9.506a9.101 9.101 0 0 1-9.101-9.101V9.956Z" fill="#0F90CA"/><path d="M41.968 45.147H22.552a2.427 2.427 0 0 1-2.427-2.427V28.158a2.427 2.427 0 0 1 2.427-2.427h19.416a2.427 2.427 0 0 1 2.427 2.427V42.72a2.427 2.427 0 0 1-2.427 2.427ZM22.552 35.44v7.281h19.416v-7.28H22.552Zm0-7.28v2.426h19.416v-2.427H22.552Zm10.921 12.134H24.98v-2.427h8.494v2.427Z" fill="#fff"/></svg>
